# xmcd
#
# Track frame offsets: 
#        150
#        21144
#        30150
#        49201
#        68925
#        90973
#        109392
#        129147
#        154208
#        177805
#        183902
#        196446
#        211648
#        229647
#
# Disc length: 3955 seconds
#
# Revision: 1
# Processed by: cddbd v1.5.2PL0 Copyright (c) Steve Scherf et al.
# Submitted via: ExactAudioCopy v0.99pb5
#
DISCID=a90f710e
DTITLE=Sons Of Shiva - The Only Way Out Is In
DYEAR=2002
DGENRE=Rock
TTITLE0=The Only Way Out Is In
TTITLE1=The Darkness Of The Mind
TTITLE2=Red-Shift Blue-Shift
TTITLE3=When You're Gone
TTITLE4=Cobblestones
TTITLE5=Om Namah Shivay
TTITLE6=Speak Up
TTITLE7=Copenhagen Love
TTITLE8=Comfortable
TTITLE9=In Dreams
TTITLE10=Deeper Grounds
TTITLE11=Shifting Realities
TTITLE12=Mourning
TTITLE13=Bollywood Buddha
EXTD=YEAR: 2002
EXTT0=
EXTT1=
EXTT2=
EXTT3=
EXTT4=
EXTT5=
EXTT6=
EXTT7=
EXTT8=
EXTT9=
EXTT10=
EXTT11=
EXTT12=
EXTT13=
PLAYORDER=
